<svg xmlns="http://www.w3.org/2000/svg" viewBox="0 0 640 420">
  <defs>
    <linearGradient id="heroGrad" x1="0" y1="0" x2="1" y2="1">
      <stop offset="0" stop-color="#0ea5e9"/>
      <stop offset="0.5" stop-color="#6366f1"/>
      <stop offset="1" stop-color="#ec4899"/>
    </linearGradient>
    <radialGradient id="glow" cx="50%" cy="0%" r="70%">
      <stop offset="0" stop-color="#e5e7eb" stop-opacity="0.8"/>
      <stop offset="1" stop-color="#020617" stop-opacity="0"/>
    </radialGradient>
  </defs>
  <rect width="640" height="420" fill="#020617"/>
  <circle cx="320" cy="40" r="260" fill="url(#glow)"/>
  <rect x="80" y="90" width="480" height="260" rx="22" fill="#020617" stroke="#1f2937" stroke-width="3"/>
  <rect x="96" y="110" width="448" height="228" rx="18" fill="#020617"/>
  <path d="M110 310h420" stroke="#1f2937" stroke-width="2" stroke-linecap="round"/>
  <circle cx="320" cy="310" r="6" fill="#111827" stroke="#4b5563"/>
  <rect x="122" y="130" width="130" height="170" rx="10" fill="#020617" stroke="#4f46e5" stroke-width="2"/>
  <path d="M132 288l30-78 32 50 18-34 25 62" fill="none" stroke="url(#heroGrad)" stroke-width="4" stroke-linecap="round" stroke-linejoin="round"/>
  <rect x="282" y="135" width="236" height="22" rx="11" fill="#020617" stroke="#1f2937"/>
  <rect x="290" y="140" width="80" height="12" rx="6" fill="#22c55e" opacity="0.8"/>
  <rect x="282" y="176" width="120" height="16" rx="8" fill="#0f172a" stroke="#1f2937"/>
  <rect x="282" y="206" width="168" height="16" rx="8" fill="#0f172a" stroke="#1f2937"/>
  <rect x="282" y="236" width="190" height="16" rx="8" fill="#0f172a" stroke="#1f2937"/>
  <rect x="282" y="266" width="140" height="16" rx="8" fill="#0f172a" stroke="#1f2937"/>
  <rect x="450" y="176" width="68" height="28" rx="14" fill="url(#heroGrad)"/>
  <text x="484" y="195" text-anchor="middle" fill="#e5e7eb" font-size="11" font-family="system-ui, -apple-system, BlinkMacSystemFont, 'Inter', sans-serif">
    LIVE
  </text>
  <text x="320" y="60" text-anchor="middle" fill="#e5e7eb" font-size="20" font-family="system-ui, -apple-system, BlinkMacSystemFont, 'Inter', sans-serif">
    Projections vidéo · Danse & Concerts
  </text>
</svg>
